PathFileType	4	(X/Y/Z)	Kaydara																																																																																																																									
DataRate	CameraRate	NumFrames	NumMarkers	Units	OrigDataRate	OrigDataStartFrame	OrigNumFrames																																																																																																																					
30	30	6	41	mm	30	83	132																																																																																																																					
Frame#	Time	SALE_LFHD			SALE_RFHD			SALE_LBHD			SALE_RBHD			SALE_LFTShould			SALE_RFTShould			SALE_LRRShould			SALE_RRRShould			SALE_T10			SALE_STRN			SALE_TRUN			SALE_LSHO			SALE_LUPA			SALE_LELB			SALE_LFRM			SALE_LWRA			SALE_LWRB			SALE_LFIN			SALE_RSHO			SALE_RUPA			SALE_RELB			SALE_RFRM			SALE_RWRB			SALE_RFIN			SALE_LFWT			SALE_RFWT			SALE_LBWT			SALE_RBWT			SALE_LTHI			SALE_LKNE			SALE_RWRA			SALE_LSHN			SALE_LANK			SALE_LHEE			SALE_LTOE			SALE_RTHI			SALE_RKNE			SALE_RSHN			SALE_RANK			SALE_RHEE			SALE_RTOE		
		X1	Y1	Z1	X2	Y2	Z2	X3	Y3	Z3	X4	Y4	Z4	X5	Y5	Z5	X6	Y6	Z6	X7	Y7	Z7	X8	Y8	Z8	X9	Y9	Z9	X10	Y10	Z10	X11	Y11	Z11	X12	Y12	Z12	X13	Y13	Z13	X14	Y14	Z14	X15	Y15	Z15	X16	Y16	Z16	X17	Y17	Z17	X18	Y18	Z18	X19	Y19	Z19	X20	Y20	Z20	X21	Y21	Z21	X22	Y22	Z22	X23	Y23	Z23	X24	Y24	Z24	X25	Y25	Z25	X26	Y26	Z26	X27	Y27	Z27	X28	Y28	Z28	X29	Y29	Z29	X30	Y30	Z30	X31	Y31	Z31	X32	Y32	Z32	X33	Y33	Z33	X34	Y34	Z34	X35	Y35	Z35	X36	Y36	Z36	X37	Y37	Z37	X38	Y38	Z38	X39	Y39	Z39	X40	Y40	Z40	X41	Y41	Z41
																																																																																																																												
83	2.733	192.02417	1596.12183	-72.94994	60.19455	1588.19901	-80.47516	197.65545	1540.98343	-195.20607	71.33002	1535.05005	-195.89558	207.61848	1315.43365	-46.20707	69.74619	1302.02164	-65.07091	217.79322	1389.87015	-156.13563	65.30569	1383.35495	-164.23613	159.84458	1242.12219	-245.31816	133.16582	1231.44608	-16.20339	130.85206	1139.95445	11.38969	331.39343	1357.42294	-90.9866	374.4437	1142.50443	-102.65848	365.90809	1033.98796	-118.54524	362.79179	952.76245	-23.88628	264.19302	895.96825	93.85164	330.18337	857.07123	85.19078	317.00518	866.39427	145.65481	-29.23985	1336.86081	-136.78337	-34.75041	1146.58058	-269.13973	-81.29706	1049.28658	-285.43104	-73.54663	955.98564	-344.64233	-113.90902	825.85655	-387.02	-155.29045	779.49791	-377.53586	288.69961	903.81607	-109.61612	14.08617	915.43648	-97.61636	230.62485	969.31465	-272.45771	50.14155	976.87927	-270.79479	259.89359	615.92506	-295.01905	258.27259	434.3372	-242.30068	-105.36669	789.8082	-320.68409	257.36416	293.87794	-404.0345	266.2759	226.94704	-580.48645	236.29761	253.92376	-660.29968	232.32098	93.62593	-548.68156	-5.18392	655.0753	-146.23704	34.24136	558.89072	23.98961	87.04202	355.2346	60.17619	34.37265	99.98744	26.98126	43.88	54.01006	146.44552	73.31128	41.5344	-45.2748
84	2.767	182.55777	1616.37527	-12.51936	51.21765	1603.56079	-18.32205	188.49724	1559.25201	-133.87914	62.39224	1548.77228	-132.55281	209.29537	1333.73871	15.05875	68.97674	1320.22141	0.8924	214.58822	1407.87628	-94.88609	61.29359	1400.80994	-98.30617	152.85372	1260.70251	-184.40767	136.39209	1248.7178	47.19359	136.05989	1156.87386	73.65933	331.43425	1372.27768	-35.31888	375.57076	1156.94695	-54.10676	367.3695	1049.26117	-74.03181	371.40564	951.2484	-1.66922	279.76892	857.95738	97.3651	349.96552	830.52658	81.05642	334.89902	817.0993	140.24669	-31.52657	1352.76154	-67.73214	-40.99583	1153.99719	-188.29338	-83.66768	1050.56473	-192.52895	-76.00098	951.99333	-243.69436	-111.98214	815.61722	-270.5525	-144.00962	762.43263	-252.59205	285.74938	919.16565	-49.25972	10.70282	936.41121	-35.80612	227.70313	983.98964	-213.13799	47.78389	998.45795	-208.35596	251.69155	614.11625	-195.65241	258.01722	442.4226	-115.89734	-94.03336	789.60556	-202.1578	252.75537	311.64309	-283.12693	256.5613	261.64227	-465.61806	219.94545	292.01763	-541.45977	233.70106	125.30258	-442.39735	-4.64281	670.23331	-113.84337	36.50548	557.28451	45.63551	86.76629	354.2495	66.00664	34.07367	100.64418	27.40502	46.77771	54.70267	145.15606	73.81435	41.19535	-46.07536
85	2.8	178.17062	1637.10907	49.91543	47.42766	1622.23648	45.15821	183.92269	1581.82587	-71.85528	58.07891	1568.99994	-69.50864	212.13179	1354.24652	72.69215	73.25393	1341.16943	62.41888	211.8008	1426.21063	-37.35724	59.1648	1418.99155	-37.30487	146.45015	1278.57529	-123.25387	141.6145	1269.43886	106.95665	143.45907	1177.60338	133.85572	330.75695	1390.28351	17.13627	380.33623	1177.44484	-16.5056	368.08346	1067.75635	-39.49726	386.0154	959.85031	5.59445	305.7342	836.3002	79.74238	377.24583	820.16754	55.2422	361.50414	785.49919	107.34358	-32.2146	1371.67572	-4.33321	-47.09779	1158.32352	-110.44677	-86.88479	1056.35536	-97.00849	-80.06643	952.01508	-136.28232	-111.46087	810.49355	-140.95836	-131.32238	754.28482	-109.5447	284.07843	938.58353	9.94696	7.73223	951.56075	25.64926	220.87404	1004.69315	-151.47322	43.82061	1018.99857	-144.49498	247.67109	622.68311	-94.55915	261.9072	465.87181	10.15757	-83.57026	798.75542	-71.97542	251.96573	327.8558	-149.09162	245.24168	266.66691	-328.48743	203.84388	289.86496	-405.22823	226.61104	134.18571	-292.59571	-12.27994	688.83682	-80.88362	31.09116	555.06142	56.73125	79.70534	354.82635	65.05148	30.94689	100.74634	23.28542	45.07467	55.6497	142.11327	72.41181	39.63097	-48.40504
86	2.833	178.7064	1649.42307	113.45296	48.38842	1635.76675	110.13072	182.76857	1599.20303	-9.62555	57.19011	1586.80023	-6.63391	214.46413	1370.6308	127.35306	75.16605	1359.34601	121.52737	207.72577	1438.75519	18.08215	57.50883	1431.8811	21.33756	139.64328	1290.00122	-63.62723	145.23572	1288.67905	165.4541	147.77809	1198.57193	196.19827	328.87424	1406.26495	65.56109	380.47871	1196.96709	23.6309	368.33153	1092.28432	-8.5621	401.34251	982.02248	9.62824	340.47039	834.74731	52.96956	408.80146	832.39082	17.37981	399.31263	780.57617	57.73709	-32.38209	1388.14758	58.62759	-54.87339	1169.31175	-29.53994	-90.73368	1065.81749	-2.4738	-84.36373	954.24721	-25.34549	-108.75334	811.80496	-1.31228	-120.59862	761.52885	43.97756	281.30836	954.6801	71.23634	4.18745	960.5069	86.13676	214.34053	1019.82735	-88.94875	41.92684	1032.13211	-81.31386	249.08278	637.10899	1.69514	264.23517	494.4762	130.19403	-73.79143	815.812	64.63571	249.15989	332.33665	-8.06813	235.72256	246.66918	-178.27831	189.96798	256.24493	-256.97897	221.65094	123.06587	-119.93185	-15.24012	704.62151	-51.51999	18.93902	552.95544	66.25798	71.36813	356.39099	63.9614	26.85429	100.84507	18.63835	41.95678	55.45202	140.3173	69.47163	39.42814	-49.94549
87	2.867	182.57635	1650.06592	177.09688	52.04305	1638.91556	176.07924	183.30654	1605.46616	51.92235	57.46902	1595.08759	57.11458	216.79338	1380.53436	181.52172	77.68872	1369.69086	179.79774	202.51766	1440.59296	72.02327	54.97179	1434.98825	79.17922	131.04403	1291.33194	-4.55686	147.27059	1300.5896	224.40956	150.23738	1210.98969	256.44583	325.5117	1412.15485	111.64863	381.13232	1209.7023	61.19303	370.59116	1108.38249	23.17401	413.69228	1006.49529	12.82715	377.02938	845.64079	30.29739	436.83407	860.96832	-15.62065	441.06941	799.9437	9.15858	-32.75576	1395.41351	122.06234	-63.48979	1174.4059	48.80138	-96.05186	1071.55319	90.03262	-90.46868	953.45428	87.6274	-104.04757	817.8772	144.29507	-111.27592	780.17067	201.14561	276.82264	960.09621	133.71173	0.29161	960.87952	145.01757	211.62195	1022.85164	-26.66265	40.64329	1034.00101	-19.82234	257.38298	644.88731	90.18822	263.51099	518.69026	239.30845	-63.11136	837.38861	203.72059	246.91071	329.81899	134.56681	230.60806	211.1318	-16.22737	182.07304	203.08105	-94.19645	219.24229	104.3136	68.00683	-17.75902	712.07527	-17.95538	12.28913	547.68532	82.35825	65.99718	357.68188	69.3953	25.43612	103.12313	20.18665	41.17263	54.15446	141.08504	69.20261	43.27378	-50.18469
88	2.9	187.99458	1640.40131	239.25671	57.21088	1633.1015	241.29019	184.48944	1599.13834	113.00516	58.51141	1592.24579	121.11432	215.57783	1379.72916	235.69975	79.6489	1369.85733	237.70624	197.42395	1432.0845	128.33536	50.24728	1426.96777	138.27662	123.06766	1283.06015	54.28227	147.65951	1298.87039	284.80947	151.24506	1208.63625	315.14719	321.0508	1405.91766	162.02629	379.75182	1215.76683	88.63183	371.63517	1120.00755	39.27487	423.08964	1026.09032	10.78772	413.01949	858.19328	21.16656	456.51409	889.61327	-33.65463	478.21312	831.39458	-20.79633	-35.19065	1389.65195	185.30954	-76.08966	1164.08791	127.57461	-105.22133	1065.2684	181.68766	-96.37777	947.56195	203.00606	-100.51523	829.38705	290.95028	-101.9948	807.35909	355.34134	272.00369	952.21832	196.81177	-5.32666	951.98784	199.73543	212.39918	1013.81371	33.48103	40.46291	1026.98875	36.46861	268.57864	641.48232	175.74621	259.68487	531.35082	337.37129	-51.78584	860.93193	338.81943	246.13981	321.6555	275.45145	230.50665	169.71432	157.45793	182.28582	141.78882	83.50242	219.38122	89.65292	266.38905	-19.83007	712.86331	25.98574	9.50187	543.71601	117.33979	64.56806	354.47701	89.91396	25.1415	103.46909	22.23024	41.29513	53.48428	141.90639	68.99351	46.33794	-49.42087
